<?xml version="1.0" encoding="UTF-8" standalone="no"?>
<!-- Generator: Adobe Illustrator 21.1.0, SVG Export Plug-In . SVG Version: 6.00 Build 0)  -->

<svg
   xmlns:dc="http://purl.org/dc/elements/1.1/"
   xmlns:cc="http://creativecommons.org/ns#"
   xmlns:rdf="http://www.w3.org/1999/02/22-rdf-syntax-ns#"
   xmlns:svg="http://www.w3.org/2000/svg"
   xmlns="http://www.w3.org/2000/svg"
   xmlns:sodipodi="http://sodipodi.sourceforge.net/DTD/sodipodi-0.dtd"
   xmlns:inkscape="http://www.inkscape.org/namespaces/inkscape"
   version="1.1"
   id="Layer_1"
   x="0px"
   y="0px"
   viewBox="0 0 179 40"
   style="enable-background:new 0 0 179 40;"
   xml:space="preserve"
   inkscape:version="0.91 r13725"
   sodipodi:docname="logo.svg"><metadata
     id="metadata38"><rdf:RDF><cc:Work
         rdf:about=""><dc:format>image/svg+xml</dc:format><dc:type
           rdf:resource="http://purl.org/dc/dcmitype/StillImage" /><dc:title></dc:title></cc:Work></rdf:RDF></metadata><defs
     id="defs36"><clipPath
       id="clipPath4182"
       clipPathUnits="userSpaceOnUse"><path
         inkscape:connector-curvature="0"
         id="path4184"
         d="m 0,1296 4320,0 L 4320,0 0,0 0,1296 Z" /></clipPath><clipPath
       id="clipPath4271"
       clipPathUnits="userSpaceOnUse"><path
         inkscape:connector-curvature="0"
         id="path4273"
         d="m 0,1296 4320,0 L 4320,0 0,0 0,1296 Z" /></clipPath></defs><sodipodi:namedview
     pagecolor="#ffffff"
     bordercolor="#666666"
     borderopacity="1"
     objecttolerance="10000"
     gridtolerance="10000"
     guidetolerance="10000"
     inkscape:pageopacity="0"
     inkscape:pageshadow="2"
     inkscape:window-width="1920"
     inkscape:window-height="1147"
     id="namedview34"
     showgrid="true"
     showguides="true"
     inkscape:zoom="3.5530726"
     inkscape:cx="106.46447"
     inkscape:cy="8.5726104"
     inkscape:window-x="1912"
     inkscape:window-y="22"
     inkscape:window-maximized="1"
     inkscape:current-layer="Layer_1"><inkscape:grid
       type="xygrid"
       id="grid4350" /></sodipodi:namedview><style
     type="text/css"
     id="style3">
	.st0{fill:#FF6600;}
	.st1{fill:#FFFFFF;}
</style><g
     transform="matrix(0.05025658,0,0,-0.05025658,-18.263609,52.768634)"
     inkscape:label="Banner White v2"
     id="g4265"><g
       id="g4267"><g
         clip-path="url(#clipPath4271)"
         id="g4269"><g
           transform="translate(1168.335,651.8164)"
           id="g4275"><path
             inkscape:connector-curvature="0"
             id="path4277"
             style="fill:#ff6600;fill-opacity:1;fill-rule:nonzero;stroke:none"
             d="m 0,0 c 0,-219.688 -178.093,-397.782 -397.782,-397.782 -219.689,0 -397.781,178.094 -397.781,397.782 0,219.689 178.092,397.782 397.781,397.782 C -178.093,397.782 0,219.689 0,0" /></g><g
           transform="translate(975.1797,740.8696)"
           id="g4279"><path
             inkscape:connector-curvature="0"
             id="path4281"
             style="fill:#ffffff;fill-opacity:1;fill-rule:nonzero;stroke:none"
             d="m 0,0 0.031,-0.883 0.09,-0.879 0.153,-0.871 0.207,-0.864 0.269,-0.843 0.324,-0.821 0.379,-0.8 0.434,-0.77 0.484,-0.742 0.535,-0.703 0.582,-0.668 0.625,-0.625 0.668,-0.582 0.707,-0.535 0.739,-0.485 0.769,-0.433 0.801,-0.383 0.824,-0.324 0.844,-0.266 0.859,-0.211 0.871,-0.148 0.879,-0.09 0.887,-0.031 25.488,0 0.883,0.031 0.883,0.09 0.871,0.148 0.859,0.211 0.844,0.266 0.824,0.324 0.797,0.383 0.774,0.433 0.738,0.485 0.707,0.535 0.668,0.582 0.625,0.625 0.578,0.668 0.535,0.703 0.489,0.742 0.433,0.77 0.379,0.8 0.324,0.821 0.27,0.843 0.207,0.864 0.152,0.871 0.09,0.879 0.031,0.883 0,26.293 -0.031,0.886 -0.09,0.879 -0.152,0.871 -0.207,0.86 -0.27,0.843 -0.324,0.825 -0.379,0.8 -0.433,0.77 -0.489,0.738 -0.535,0.707 -0.578,0.668 -0.625,0.625 -0.668,0.582 -0.707,0.535 -0.738,0.485 -0.774,0.433 -0.797,0.379 -0.824,0.324 -0.844,0.27 -0.859,0.211 -0.871,0.148 -0.883,0.09 -0.883,0.031 -25.488,0 -0.887,-0.031 -0.879,-0.09 L 10.324,38.984 9.465,38.773 8.621,38.503 7.797,38.179 6.996,37.8 6.227,37.367 5.488,36.882 4.781,36.347 4.113,35.765 3.488,35.14 2.906,34.472 2.371,33.765 1.887,33.027 1.453,32.257 1.074,31.457 0.75,30.632 0.481,29.789 0.274,28.929 0.121,28.058 0.031,27.179 0,26.293 0,0 Z" /></g><g
           transform="translate(809.3594,619.3691)"
           id="g4283"><path
             inkscape:connector-curvature="0"
             id="path4285"
             style="fill:#ffffff;fill-opacity:1;fill-rule:nonzero;stroke:none"
             d="m 0,0 152.859,0 -0.004,0 0.887,-0.031 0.879,-0.09 0.875,-0.149 0.859,-0.21 0.84,-0.266 0.824,-0.328 0.801,-0.379 0.77,-0.434 0.742,-0.484 0.703,-0.535 0.668,-0.582 0.625,-0.625 0.582,-0.668 0.535,-0.703 0.484,-0.743 0.434,-0.769 0.383,-0.801 0.324,-0.82 0.266,-0.844 0.211,-0.863 0.148,-0.871 0.094,-0.879 0.027,-0.887 0,-69.719 0.031,-0.883 0.09,-0.882 0.153,-0.871 0.207,-0.86 0.269,-0.844 0.324,-0.824 0.379,-0.797 0.434,-0.774 0.484,-0.737 0.535,-0.707 0.582,-0.668 0.625,-0.625 0.668,-0.582 0.707,-0.532 0.739,-0.488 0.773,-0.434 0.797,-0.378 0.824,-0.325 0.844,-0.269 0.859,-0.207 0.871,-0.153 0.883,-0.089 0.883,-0.032 25.488,0 0.883,0.032 0.883,0.089 0.871,0.153 0.859,0.207 0.844,0.269 0.824,0.325 0.797,0.378 0.774,0.434 0.738,0.488 0.707,0.532 0.664,0.582 0.629,0.625 0.582,0.668 0.531,0.707 0.489,0.737 0.433,0.774 0.379,0.797 0.324,0.824 0.27,0.844 0.207,0.86 0.152,0.871 0.09,0.882 0.031,0.883 0,82.68 0,38.583 -0.031,0.881 -0.09,0.879 -0.152,0.875 -0.207,0.861 -0.27,0.842 -0.324,0.826 -0.379,0.796 -0.433,0.773 -0.489,0.738 -0.531,0.707 -0.582,0.664 -0.629,0.625 -0.664,0.582 -0.707,0.536 -0.738,0.488 -0.774,0.433 -0.797,0.379 -0.824,0.325 -0.844,0.27 -0.859,0.207 -0.871,0.151 -0.883,0.09 -0.883,0.032 -38.449,0 0,-0.132 -165.816,0 0.004,0 -0.887,0.03 -0.879,0.09 -0.871,0.148 -0.863,0.212 -0.84,0.265 -0.824,0.324 -0.801,0.383 -0.77,0.433 -0.742,0.485 -0.703,0.535 -0.668,0.582 -0.625,0.625 -0.582,0.668 -0.535,0.704 -0.485,0.741 -0.433,0.77 -0.379,0.802 -0.328,0.819 -0.266,0.845 -0.211,0.862 -0.148,0.871 -0.094,0.879 -0.027,0.884 0,83.425 -0.032,0.882 -0.089,0.884 -0.153,0.87 -0.207,0.861 -0.269,0.842 -0.324,0.826 -0.379,0.795 -0.434,0.774 -0.484,0.739 -0.536,0.707 -0.582,0.663 -0.625,0.63 -0.668,0.577 -0.707,0.535 -0.738,0.49 -0.773,0.432 -0.797,0.379 -0.824,0.324 -0.844,0.27 -0.859,0.207 -0.872,0.152 -0.882,0.091 -0.883,0.03 -25.778,0 -0.882,-0.03 -0.879,-0.091 -0.875,-0.152 -0.86,-0.207 -0.843,-0.27 -0.825,-0.324 -0.796,-0.379 -0.774,-0.432 -0.738,-0.49 -0.707,-0.535 -0.664,-0.577 -0.625,-0.63 -0.582,-0.663 -0.535,-0.707 -0.489,-0.739 -0.433,-0.774 -0.379,-0.795 -0.324,-0.826 -0.266,-0.842 -0.211,-0.861 -0.152,-0.87 -0.09,-0.884 -0.031,-0.882 0.003,0 0,-83.293 -0.003,0 -0.028,-0.882 -0.09,-0.88 -0.152,-0.875 -0.207,-0.86 -0.27,-0.842 -0.324,-0.826 -0.383,-0.795 -0.429,-0.774 -0.489,-0.739 -0.535,-0.703 -0.582,-0.668 -0.625,-0.625 -0.668,-0.582 -0.703,-0.534 -0.738,-0.49 -0.774,-0.428 -0.796,-0.384 -0.825,-0.323 -0.843,-0.267 -0.86,-0.21 -0.875,-0.152 -0.879,-0.091 -0.883,-0.027 -178.718,0 0.004,0 -0.887,0.027 -0.879,0.091 -0.871,0.152 -0.863,0.21 -0.84,0.267 -0.824,0.323 -0.801,0.384 -0.769,0.428 -0.743,0.49 -0.703,0.534 -0.668,0.582 -0.625,0.625 -0.582,0.668 -0.535,0.703 -0.485,0.739 -0.433,0.774 -0.379,0.795 -0.328,0.826 -0.266,0.842 -0.211,0.86 -0.148,0.875 -0.09,0.88 -0.031,0.882 0,83.293 -0.032,0.882 -0.089,0.884 -0.152,0.87 -0.208,0.861 -0.269,0.842 -0.325,0.826 -0.378,0.795 -0.434,0.774 -0.484,0.739 -0.536,0.707 -0.582,0.663 -0.628,0.63 -0.665,0.577 -0.707,0.535 -0.738,0.49 -0.773,0.432 -0.797,0.379 -0.824,0.324 -0.844,0.27 -0.86,0.207 -0.871,0.152 -0.882,0.091 -0.883,0.03 -25.762,0 -0.004,0 -0.883,-0.03 -0.879,-0.091 -0.875,-0.152 -0.859,-0.207 -0.844,-0.27 -0.82,-0.324 -0.801,-0.379 -0.769,-0.432 -0.743,-0.49 -0.703,-0.535 -0.668,-0.577 -0.625,-0.63 -0.582,-0.663 -0.535,-0.707 -0.484,-0.739 -0.434,-0.774 -0.383,-0.795 -0.324,-0.826 -0.265,-0.842 -0.211,-0.861 -0.149,-0.87 -0.094,-0.884 -0.027,-0.882 0,-230.688 0.027,-0.886 0.094,-0.879 0.149,-0.871 0.211,-0.86 0.265,-0.843 0.324,-0.825 0.383,-0.8 0.434,-0.77 0.484,-0.742 0.535,-0.703 0.582,-0.668 0.625,-0.625 0.668,-0.582 0.703,-0.535 0.743,-0.485 0.769,-0.433 0.801,-0.379 0.82,-0.328 0.844,-0.266 0.859,-0.211 0.875,-0.148 0.879,-0.09 0.883,-0.031 0.004,0 25.762,0 0.883,0.031 0.882,0.09 0.871,0.148 0.86,0.211 0.844,0.266 0.824,0.328 0.797,0.379 0.773,0.433 0.738,0.485 0.707,0.535 0.665,0.582 0.628,0.625 0.582,0.668 0.536,0.703 0.484,0.742 0.434,0.77 0.378,0.8 0.325,0.825 0.269,0.843 0.208,0.86 0.152,0.871 0.089,0.879 0.032,0.886 0,69.793 0.031,0.883 0.09,0.879 0.148,0.875 0.211,0.86 0.266,0.843 0.328,0.821 0.379,0.8 0.433,0.77 0.485,0.742 0.535,0.703 0.582,0.668 0.625,0.625 0.668,0.582 0.703,0.535 0.743,0.485 0.769,0.433 0.801,0.383 0.824,0.324 0.84,0.266 0.863,0.21 0.871,0.149 0.879,0.094 0.887,0.027 -0.004,0 178.718,0 0.883,-0.027 0.879,-0.094 0.875,-0.149 0.86,-0.21 0.843,-0.266 0.825,-0.324 0.796,-0.383 0.774,-0.433 0.738,-0.485 0.703,-0.535 0.668,-0.582 0.625,-0.625 0.582,-0.668 0.535,-0.703 0.489,-0.742 0.429,-0.77 0.383,-0.8 0.324,-0.821 0.27,-0.843 0.207,-0.86 0.152,-0.875 0.09,-0.879 0.028,-0.883 0.003,0 0,-69.793 -0.003,0 0.031,-0.886 0.09,-0.879 0.152,-0.871 0.211,-0.86 0.266,-0.843 0.324,-0.825 0.379,-0.8 0.433,-0.77 0.489,-0.742 0.535,-0.703 0.582,-0.668 0.625,-0.625 0.664,-0.582 0.707,-0.535 0.738,-0.485 0.774,-0.433 0.796,-0.379 0.825,-0.328 0.843,-0.266 0.86,-0.211 0.875,-0.148 0.879,-0.09 0.882,-0.031 25.778,0 0.883,0.031 0.882,0.09 0.872,0.148 0.859,0.211 0.844,0.266 0.824,0.328 0.797,0.379 0.773,0.433 0.738,0.485 0.707,0.535 0.668,0.582 0.625,0.625 0.582,0.668 0.536,0.703 0.484,0.742 0.434,0.77 0.379,0.8 0.324,0.825 0.269,0.843 0.207,0.86 0.153,0.871 0.089,0.879 0.032,0.886 0,69.934 0.027,0.887 0.094,0.879 0.148,0.871 0.211,0.863 0.266,0.844 0.328,0.82 0.379,0.801 0.433,0.769 0.485,0.743 0.535,0.703 0.582,0.668 0.625,0.625 0.668,0.582 0.703,0.535 0.742,0.484 0.77,0.434 0.801,0.379 0.824,0.328 0.84,0.266 0.863,0.21 0.871,0.149 0.879,0.09 L 0.004,0" /></g><g
           transform="translate(3197.7422,767.3711)"
           id="g4287"><path
             inkscape:connector-curvature="0"
             id="path4289"
             style="fill:#ffffff;fill-opacity:1;fill-rule:nonzero;stroke:none"
             d="M 0,0 -0.027,0.883 -0.121,1.766 -0.27,2.637 -0.48,3.496 -0.746,4.34 -1.07,5.164 -1.453,5.961 -1.887,6.734 -2.371,7.473 -2.906,8.18 l -0.578,0.668 -0.629,0.625 -0.664,0.582 -0.707,0.535 -0.739,0.484 -0.773,0.434 -0.801,0.379 -0.82,0.324 -0.844,0.27 -0.859,0.207 -0.875,0.152 -0.879,0.09 -0.883,0.031 -25.488,0 -0.887,-0.031 -0.879,-0.09 -0.871,-0.152 -0.859,-0.207 -0.844,-0.27 -0.824,-0.324 -0.801,-0.379 -0.77,-0.434 -0.742,-0.484 -0.703,-0.535 L -47.293,9.473 -47.918,8.848 -48.5,8.18 -49.035,7.473 -49.52,6.734 -49.953,5.961 -50.332,5.164 -50.656,4.34 -50.926,3.496 -51.137,2.637 -51.285,1.766 -51.375,0.883 -51.406,0 l 0,-26.293 0.031,-0.883 0.09,-0.882 0.148,-0.872 0.211,-0.859 0.27,-0.844 0.324,-0.824 0.379,-0.797 0.433,-0.773 0.485,-0.739 0.535,-0.707 0.582,-0.664 0.625,-0.629 0.668,-0.582 0.703,-0.535 0.742,-0.484 0.77,-0.434 0.801,-0.379 0.824,-0.324 0.844,-0.269 0.859,-0.207 0.871,-0.153 0.879,-0.09 0.887,-0.031 25.488,0 0.883,0.031 0.879,0.09 0.875,0.153 0.859,0.207 0.844,0.269 0.82,0.324 0.801,0.379 0.773,0.434 0.739,0.484 0.707,0.535 0.664,0.582 0.629,0.629 0.578,0.664 0.535,0.707 0.484,0.739 0.434,0.773 0.383,0.797 0.324,0.824 0.266,0.844 0.21,0.859 0.149,0.872 0.094,0.882 L 0,-26.293 0,0 Z" /></g><g
           transform="translate(2698.2656,780.3198)"
           id="g4291"><path
             inkscape:connector-curvature="0"
             id="path4293"
             style="fill:#ffffff;fill-opacity:1;fill-rule:nonzero;stroke:none"
             d="M 0,0 0.883,-0.031 1.762,-0.121 2.633,-0.269 3.496,-0.48 4.34,-0.75 5.16,-1.074 5.961,-1.453 6.73,-1.886 7.473,-2.375 8.176,-2.906 8.844,-3.488 9.469,-4.113 10.051,-4.781 10.586,-5.488 11.07,-6.226 11.504,-7 l 0.383,-0.797 0.324,-0.824 0.266,-0.844 0.211,-0.859 0.148,-0.871 0.094,-0.883 0.027,-0.883 0,-83.293 0.031,-0.882 0.09,-0.879 0.152,-0.875 0.208,-0.86 0.269,-0.843 0.324,-0.825 0.379,-0.797 0.434,-0.769 0.488,-0.742 0.535,-0.707 0.578,-0.664 0.629,-0.625 0.664,-0.582 0.707,-0.536 0.739,-0.488 0.773,-0.433 0.797,-0.379 0.824,-0.325 0.844,-0.265 0.859,-0.211 0.871,-0.152 0.883,-0.09 0.883,-0.032 178.715,0 0.887,0.032 0.878,0.09 0.872,0.152 0.859,0.211 0.844,0.265 0.824,0.325 0.801,0.379 0.769,0.433 0.738,0.488 0.707,0.536 0.668,0.582 0.625,0.625 0.582,0.664 0.536,0.707 0.484,0.742 0.434,0.769 0.379,0.797 0.324,0.825 0.269,0.843 0.211,0.86 0.149,0.875 0.089,0.879 0.032,0.882 0,83.293 0.031,0.883 0.09,0.883 0.152,0.871 0.207,0.859 0.27,0.844 0.324,0.824 0.379,0.797 0.433,0.774 0.485,0.738 0.535,0.707 0.582,0.668 0.625,0.625 0.668,0.582 0.707,0.531 0.738,0.489 0.77,0.433 0.801,0.379 0.824,0.324 0.844,0.27 0.859,0.211 0.871,0.148 0.879,0.09 0.887,0.031 25.773,0 0.887,-0.031 0.879,-0.09 0.871,-0.148 0.863,-0.211 0.84,-0.27 0.824,-0.324 0.801,-0.379 0.769,-0.433 0.743,-0.489 0.703,-0.531 0.668,-0.582 0.625,-0.625 0.582,-0.668 0.535,-0.707 0.484,-0.738 0.434,-0.774 0.379,-0.797 0.328,-0.824 0.266,-0.844 0.211,-0.859 0.148,-0.871 0.09,-0.883 0.031,-0.883 0,-83.421 0.031,-0.887 0.09,-0.879 0.149,-0.871 0.211,-0.86 0.269,-0.843 0.324,-0.825 0.379,-0.8 0.434,-0.77 0.484,-0.742 0.535,-0.703 0.582,-0.668 0.625,-0.625 0.668,-0.582 0.703,-0.535 0.743,-0.485 0.773,-0.433 0.797,-0.379 0.824,-0.328 0.844,-0.266 0.859,-0.211 0.871,-0.148 0.883,-0.09 0.883,-0.031 165.816,0 0,0.128 38.45,0 0.882,-0.027 0.879,-0.09 0.871,-0.152 0.864,-0.207 0.843,-0.27 0.821,-0.324 0.801,-0.383 0.769,-0.429 0.742,-0.489 0.703,-0.535 0.668,-0.582 0.625,-0.625 0.582,-0.668 0.536,-0.703 0.484,-0.738 0.434,-0.774 0.382,-0.796 0.325,-0.825 0.265,-0.843 0.211,-0.86 0.149,-0.875 0.093,-0.879 0.028,-0.883 0,-38.581 0,-82.68 -0.028,-0.883 -0.093,-0.879 -0.149,-0.875 -0.211,-0.859 -0.265,-0.844 -0.325,-0.824 -0.382,-0.797 -0.434,-0.773 -0.484,-0.739 -0.536,-0.703 -0.582,-0.668 -0.625,-0.625 -0.668,-0.582 -0.703,-0.535 -0.742,-0.488 -0.769,-0.43 -0.801,-0.383 -0.821,-0.324 -0.843,-0.27 -0.864,-0.207 -0.871,-0.152 -0.879,-0.09 -0.882,-0.027 -25.489,0 -0.004,0 -0.882,0.027 -0.879,0.09 -0.871,0.152 -0.86,0.207 -0.844,0.27 -0.824,0.324 -0.801,0.383 -0.769,0.43 -0.742,0.488 -0.703,0.535 -0.668,0.582 -0.625,0.625 -0.582,0.668 -0.536,0.703 -0.484,0.739 -0.433,0.773 -0.379,0.797 -0.329,0.824 -0.265,0.844 -0.211,0.859 -0.149,0.875 -0.089,0.879 -0.032,0.883 0,69.723 -0.031,0.882 -0.09,0.883 -0.152,0.871 -0.207,0.86 -0.27,0.843 -0.324,0.821 -0.379,0.8 -0.433,0.774 -0.485,0.738 -0.535,0.703 -0.582,0.668 -0.625,0.629 -0.668,0.578 -0.707,0.535 -0.738,0.485 -0.77,0.433 -0.8,0.383 -0.825,0.324 -0.843,0.266 -0.86,0.211 -0.871,0.148 -0.879,0.094 -0.887,0.028 -152.855,0 -0.883,-0.028 -0.883,-0.094 -0.871,-0.148 -0.859,-0.211 -0.844,-0.266 -0.824,-0.324 -0.797,-0.383 -0.773,-0.433 -0.743,-0.485 -0.703,-0.535 -0.668,-0.578 -0.625,-0.629 -0.582,-0.668 -0.535,-0.703 -0.484,-0.738 -0.434,-0.774 -0.379,-0.8 -0.324,-0.821 -0.269,-0.843 -0.211,-0.86 -0.149,-0.871 -0.09,-0.883 -0.031,-0.882 0,-69.938 -0.031,-0.887 -0.09,-0.879 -0.148,-0.871 -0.211,-0.859 -0.266,-0.844 -0.328,-0.824 -0.379,-0.797 -0.434,-0.773 -0.484,-0.739 -0.535,-0.707 -0.582,-0.668 -0.625,-0.625 -0.668,-0.582 -0.703,-0.531 -0.743,-0.488 -0.769,-0.434 -0.801,-0.379 -0.824,-0.324 -0.84,-0.269 -0.863,-0.207 -0.871,-0.153 -0.879,-0.09 -0.887,-0.031 -25.773,0 -0.887,0.031 -0.879,0.09 -0.871,0.153 -0.859,0.207 -0.844,0.269 -0.824,0.324 -0.801,0.379 -0.77,0.434 -0.738,0.488 -0.707,0.531 -0.668,0.582 -0.625,0.625 -0.582,0.668 -0.535,0.707 -0.485,0.739 -0.433,0.773 -0.379,0.797 -0.324,0.824 -0.27,0.844 -0.207,0.859 -0.152,0.871 -0.09,0.879 -0.031,0.887 0,69.793 -0.032,0.883 -0.089,0.883 -0.149,0.871 -0.211,0.859 -0.269,0.844 -0.324,0.824 -0.379,0.797 -0.434,0.773 -0.484,0.739 -0.536,0.707 -0.582,0.664 -0.625,0.625 -0.668,0.582 -0.707,0.535 -0.738,0.484 -0.769,0.438 -0.801,0.379 -0.824,0.324 -0.844,0.266 -0.859,0.211 -0.872,0.152 -0.878,0.09 -0.887,0.031 -178.715,0 -0.883,-0.031 -0.883,-0.09 -0.871,-0.152 -0.859,-0.211 -0.844,-0.266 -0.824,-0.324 -0.797,-0.379 -0.773,-0.438 -0.739,-0.484 -0.707,-0.535 -0.664,-0.582 -0.629,-0.625 -0.578,-0.664 -0.535,-0.707 -0.488,-0.739 -0.434,-0.773 -0.379,-0.797 -0.324,-0.824 -0.269,-0.844 -0.208,-0.859 -0.152,-0.871 -0.09,-0.883 -0.031,-0.883 0,-69.793 -0.027,-0.887 -0.094,-0.879 -0.148,-0.871 -0.211,-0.859 -0.266,-0.844 -0.324,-0.824 -0.383,-0.797 -0.434,-0.773 -0.484,-0.739 -0.535,-0.707 -0.582,-0.668 -0.625,-0.625 -0.668,-0.582 -0.703,-0.531 -0.743,-0.488 -0.769,-0.434 -0.801,-0.379 -0.82,-0.324 -0.844,-0.269 -0.863,-0.207 -0.871,-0.153 -0.879,-0.09 -0.883,-0.031 -0.004,0 -25.762,0 -0.886,0.031 -0.879,0.09 -0.871,0.153 -0.86,0.207 -0.843,0.269 -0.825,0.324 -0.8,0.379 -0.77,0.434 -0.742,0.488 -0.703,0.531 -0.668,0.582 -0.625,0.625 -0.582,0.668 -0.535,0.707 -0.485,0.739 -0.433,0.773 -0.379,0.797 -0.325,0.824 -0.269,0.844 -0.211,0.859 -0.148,0.871 -0.09,0.879 -0.032,0.887 0,230.687 0.032,0.883 0.09,0.883 0.148,0.871 0.211,0.859 0.269,0.844 0.325,0.824 0.379,0.797 0.433,0.774 0.485,0.738 0.535,0.707 0.582,0.668 0.625,0.625 0.668,0.582 0.703,0.531 0.742,0.489 0.77,0.433 0.8,0.379 0.825,0.324 0.843,0.27 0.86,0.211 0.871,0.148 0.879,0.09 0.886,0.031 25.762,0" /></g><g
           transform="translate(3864.0703,588.0898)"
           id="g4295"><path
             inkscape:connector-curvature="0"
             id="path4297"
             style="fill:#ffffff;fill-opacity:1;fill-rule:nonzero;stroke:none"
             d="M 0,0 -0.031,-0.883 -0.121,-1.766 -0.273,-2.637 -0.48,-3.496 -0.75,-4.34 -1.074,-5.16 -1.457,-5.961 -1.887,-6.734 -2.375,-7.473 -2.91,-8.18 -3.492,-8.844 -4.117,-9.473 -4.785,-10.051 -5.488,-10.586 -6.227,-11.07 -7,-11.504 l -0.797,-0.383 -0.824,-0.324 -0.844,-0.269 -0.859,-0.208 -0.875,-0.148 -0.879,-0.094 -0.883,-0.027 -177.434,0 -0.882,0.027 -0.883,0.094 -0.871,0.148 -0.86,0.208 -0.843,0.269 -0.825,0.324 -0.796,0.383 -0.774,0.434 -0.738,0.484 -0.707,0.535 -0.664,0.578 -0.629,0.629 -0.578,0.664 -0.535,0.707 -0.489,0.739 -0.433,0.773 -0.379,0.801 -0.324,0.82 -0.27,0.844 -0.207,0.859 -0.152,0.871 -0.09,0.883 -0.028,0.883 -0.003,0 0,25.059 0.003,0 0.028,0.882 0.09,0.879 0.152,0.875 0.207,0.86 0.27,0.843 0.324,0.821 0.379,0.801 0.433,0.773 0.489,0.738 0.535,0.703 0.578,0.668 0.629,0.625 0.664,0.582 0.707,0.536 0.738,0.484 0.774,0.434 0.796,0.382 0.825,0.325 0.843,0.265 0.86,0.211 0.871,0.149 0.883,0.093 0.882,0.028 177.434,0 0.883,-0.028 0.879,-0.093 0.875,-0.149 0.859,-0.211 0.844,-0.265 0.824,-0.325 0.797,-0.382 0.773,-0.434 0.739,-0.484 0.703,-0.536 0.668,-0.582 0.625,-0.625 0.582,-0.668 0.535,-0.703 0.488,-0.738 0.43,-0.773 0.383,-0.801 0.324,-0.821 0.27,-0.843 0.207,-0.86 0.152,-0.875 0.09,-0.879 L 0,25.059 0,0 Z m 51.664,180.152 -0.09,0.883 -0.152,0.871 -0.211,0.859 -0.266,0.844 -0.324,0.824 -0.379,0.797 -0.433,0.774 -0.489,0.738 -0.535,0.707 -0.578,0.668 -0.629,0.625 -0.664,0.578 -0.707,0.535 -0.738,0.489 -0.774,0.433 -0.797,0.379 -0.824,0.324 -0.844,0.27 -0.859,0.207 -0.871,0.152 -0.883,0.09 -0.883,0.031 -38.734,0 -241.801,0 -0.886,-0.031 -0.879,-0.09 -0.871,-0.152 -0.86,-0.207 -0.844,-0.27 -0.824,-0.324 -0.801,-0.379 -0.769,-0.433 -0.738,-0.489 -0.707,-0.535 -0.668,-0.578 -0.625,-0.625 -0.582,-0.668 -0.536,-0.707 -0.484,-0.738 -0.434,-0.774 -0.378,-0.797 -0.325,-0.824 -0.269,-0.844 -0.211,-0.859 -0.149,-0.871 -0.089,-0.883 -0.032,-0.883 0,-25.488 0.032,-0.887 0.089,-0.879 0.149,-0.871 0.211,-0.859 0.269,-0.844 0.325,-0.824 0.378,-0.801 0.434,-0.769 0.484,-0.739 0.536,-0.707 0.582,-0.668 0.625,-0.625 0.668,-0.582 0.707,-0.535 0.738,-0.484 0.769,-0.434 0.801,-0.379 0.824,-0.324 0.844,-0.269 0.86,-0.207 0.871,-0.153 0.879,-0.09 0.886,-0.031 228.84,0 0.883,-0.031 0.879,-0.09 0.875,-0.148 0.859,-0.211 0.844,-0.27 0.824,-0.32 0.797,-0.383 0.773,-0.434 0.739,-0.484 0.703,-0.535 0.668,-0.582 0.625,-0.625 0.582,-0.668 0.535,-0.703 0.488,-0.742 0.43,-0.77 0.383,-0.801 0.324,-0.82 0.27,-0.848 0.207,-0.855 0.152,-0.875 0.09,-0.879 L 0,127.859 0,102.375 -0.031,101.488 -0.121,100.609 -0.273,99.734 -0.48,98.875 -0.75,98.035 -1.074,97.211 -1.457,96.41 -1.887,95.64 -2.375,94.898 -2.91,94.195 -3.492,93.527 -4.117,92.902 -4.785,92.32 -5.488,91.785 -6.227,91.301 -7,90.867 -7.797,90.484 -8.621,90.16 l -0.844,-0.266 -0.859,-0.211 -0.875,-0.148 -0.879,-0.094 -0.883,-0.027 -228.84,0 -0.886,-0.031 -0.879,-0.09 -0.871,-0.153 -0.86,-0.207 -0.844,-0.269 -0.824,-0.324 -0.801,-0.379 -0.769,-0.434 -0.738,-0.484 -0.707,-0.535 -0.668,-0.582 -0.625,-0.625 -0.582,-0.668 -0.536,-0.707 -0.484,-0.739 -0.434,-0.773 -0.378,-0.797 -0.325,-0.824 -0.269,-0.844 -0.211,-0.859 -0.149,-0.871 -0.089,-0.883 -0.032,-0.883 0,-127.871 0.032,-0.887 0.089,-0.879 0.149,-0.871 0.211,-0.859 0.269,-0.844 0.325,-0.824 0.378,-0.801 0.434,-0.769 0.484,-0.743 0.536,-0.703 0.582,-0.668 0.625,-0.625 0.668,-0.582 0.707,-0.535 0.738,-0.484 0.769,-0.434 0.801,-0.379 0.824,-0.324 0.844,-0.269 0.86,-0.211 0.871,-0.149 0.879,-0.09 0.886,-0.031 241.801,0 38.734,0 0.883,0.031 0.883,0.09 0.871,0.149 0.859,0.211 0.844,0.269 0.824,0.324 0.797,0.379 0.774,0.434 0.738,0.484 0.707,0.535 0.664,0.582 0.629,0.625 0.578,0.668 0.535,0.703 0.489,0.743 0.433,0.769 0.379,0.801 0.324,0.824 0.266,0.844 0.211,0.859 0.152,0.871 0.09,0.879 0.031,0.887 0,230.687 -0.031,0.883 z" /></g><g
           transform="translate(1841.48,588.0898)"
           id="g4299"><path
             inkscape:connector-curvature="0"
             id="path4301"
             style="fill:#ffffff;fill-opacity:1;fill-rule:nonzero;stroke:none"
             d="M 0,0 -0.031,-0.883 -0.121,-1.766 -0.269,-2.637 -0.48,-3.496 -0.75,-4.34 -1.074,-5.16 -1.453,-5.961 -1.886,-6.734 -2.371,-7.473 -2.906,-8.18 -3.488,-8.844 -4.113,-9.473 -4.781,-10.051 -5.488,-10.586 -6.226,-11.07 -7,-11.504 l -0.796,-0.383 -0.825,-0.324 -0.843,-0.269 -0.86,-0.208 -0.871,-0.148 -0.883,-0.094 -0.882,-0.027 -178.993,0 -0.882,0.027 -0.879,0.094 -0.875,0.148 -0.86,0.208 -0.843,0.269 -0.825,0.324 -0.797,0.383 -0.769,0.434 -0.742,0.484 -0.703,0.535 -0.668,0.578 -0.625,0.629 -0.582,0.664 -0.536,0.707 -0.488,0.739 -0.433,0.773 -0.379,0.801 -0.325,0.82 -0.265,0.844 -0.211,0.859 -0.152,0.871 -0.09,0.883 -0.028,0.883 0,25.059 0.028,0.882 0.09,0.879 0.152,0.875 0.211,0.86 0.265,0.843 0.325,0.821 0.379,0.801 0.433,0.773 0.488,0.738 0.536,0.703 0.582,0.668 0.625,0.625 0.668,0.582 0.703,0.536 0.742,0.484 0.769,0.434 0.797,0.382 0.825,0.325 0.843,0.265 0.86,0.211 0.875,0.149 0.879,0.093 0.882,0.028 178.993,0 0.882,-0.028 0.883,-0.093 0.871,-0.149 0.86,-0.211 0.843,-0.265 0.825,-0.325 0.796,-0.382 0.774,-0.434 0.738,-0.484 0.707,-0.536 0.668,-0.582 0.625,-0.625 0.582,-0.668 0.535,-0.703 0.485,-0.738 0.433,-0.773 0.379,-0.801 0.324,-0.821 0.27,-0.843 0.211,-0.86 0.148,-0.875 0.09,-0.879 L 0,25.059 0,0 Z m 51.665,180.152 -0.09,0.883 -0.149,0.871 -0.211,0.859 -0.265,0.844 -0.328,0.824 -0.379,0.797 -0.434,0.774 -0.484,0.738 -0.535,0.707 -0.582,0.668 -0.625,0.625 -0.668,0.578 -0.704,0.535 -0.742,0.489 -0.769,0.433 -0.801,0.379 -0.824,0.324 -0.84,0.27 -0.863,0.207 -0.872,0.152 -0.878,0.09 -0.883,0.031 -0.004,0 -38.735,0 -243.359,0 -0.887,-0.031 -0.879,-0.09 -0.871,-0.152 -0.859,-0.207 -0.844,-0.27 -0.824,-0.324 -0.801,-0.379 -0.769,-0.433 -0.739,-0.489 -0.707,-0.535 -0.668,-0.578 -0.625,-0.625 -0.582,-0.668 -0.535,-0.707 -0.484,-0.738 -0.434,-0.774 -0.379,-0.797 -0.324,-0.824 -0.269,-0.844 -0.211,-0.859 -0.149,-0.871 -0.09,-0.883 -0.031,-0.883 0,-25.488 0.031,-0.887 0.09,-0.879 0.149,-0.871 0.211,-0.859 0.269,-0.844 0.324,-0.824 0.379,-0.801 0.434,-0.769 0.484,-0.739 0.535,-0.707 0.582,-0.668 0.625,-0.625 0.668,-0.582 0.707,-0.535 0.739,-0.484 0.769,-0.434 0.801,-0.379 0.824,-0.324 0.844,-0.269 0.859,-0.207 0.871,-0.153 0.879,-0.09 0.887,-0.031 230.399,0 0.882,-0.031 0.883,-0.09 0.871,-0.148 0.86,-0.211 0.843,-0.27 0.825,-0.32 0.796,-0.383 0.774,-0.434 0.738,-0.484 0.707,-0.535 0.668,-0.582 0.625,-0.625 0.582,-0.668 0.535,-0.703 0.485,-0.742 0.433,-0.77 0.379,-0.801 0.324,-0.82 0.27,-0.848 0.211,-0.855 0.148,-0.875 0.09,-0.879 L 0,127.859 0,102.375 -0.031,101.488 -0.121,100.609 -0.269,99.734 -0.48,98.875 -0.75,98.035 -1.074,97.211 -1.453,96.41 -1.886,95.64 -2.371,94.898 -2.906,94.195 -3.488,93.527 -4.113,92.902 -4.781,92.32 -5.488,91.785 -6.226,91.301 -7,90.867 -7.796,90.484 -8.621,90.16 l -0.843,-0.266 -0.86,-0.211 -0.871,-0.148 -0.883,-0.094 -0.882,-0.027 -230.399,0 -0.887,-0.031 -0.879,-0.09 -0.871,-0.153 -0.859,-0.207 -0.844,-0.269 -0.824,-0.324 -0.801,-0.379 -0.769,-0.434 -0.739,-0.484 -0.707,-0.535 -0.668,-0.582 -0.625,-0.625 -0.582,-0.668 -0.535,-0.707 -0.484,-0.739 -0.434,-0.773 -0.379,-0.797 -0.324,-0.824 -0.269,-0.844 -0.211,-0.859 -0.149,-0.871 -0.09,-0.883 -0.031,-0.883 0,-127.871 0.031,-0.887 0.09,-0.879 0.149,-0.871 0.211,-0.859 0.269,-0.844 0.324,-0.824 0.379,-0.801 0.434,-0.769 0.484,-0.743 0.535,-0.703 0.582,-0.668 0.625,-0.625 0.668,-0.582 0.707,-0.535 0.739,-0.484 0.769,-0.434 0.801,-0.379 0.824,-0.324 0.844,-0.269 0.859,-0.211 0.871,-0.149 0.879,-0.09 0.887,-0.031 243.359,0 38.735,0 0.004,0 0.883,0.031 0.878,0.09 0.872,0.149 0.863,0.211 0.84,0.269 0.824,0.324 0.801,0.379 0.769,0.434 0.742,0.484 0.704,0.535 0.668,0.582 0.625,0.625 0.582,0.668 0.535,0.703 0.484,0.743 0.434,0.769 0.379,0.801 0.328,0.824 0.265,0.844 0.211,0.859 0.149,0.871 0.09,0.879 0.031,0.887 0,140.832 0,51.406 0,38.449 -0.031,0.883 z" /></g><g
           transform="translate(3315.5547,728.9141)"
           id="g4303"><path
             inkscape:connector-curvature="0"
             id="path4305"
             style="fill:#ffffff;fill-opacity:1;fill-rule:nonzero;stroke:none"
             d="M 0,0 -0.887,-0.027 -1.766,-0.121 -2.641,-0.269 -3.5,-0.48 -4.34,-0.746 -5.164,-1.07 -5.965,-1.453 -6.734,-1.887 -7.477,-2.371 -8.18,-2.906 l -0.668,-0.582 -0.625,-0.625 -0.582,-0.668 -0.535,-0.703 -0.484,-0.742 -0.434,-0.77 -0.383,-0.801 -0.324,-0.82 -0.265,-0.844 -0.211,-0.859 -0.149,-0.875 -0.094,-0.879 -0.027,-0.883 0,-179.281 -0.031,-0.883 -0.09,-0.883 -0.152,-0.871 -0.207,-0.859 -0.27,-0.844 -0.324,-0.824 -0.379,-0.797 -0.434,-0.774 -0.484,-0.742 -0.535,-0.703 -0.582,-0.668 -0.625,-0.625 -0.668,-0.582 -0.707,-0.535 -0.738,-0.484 -0.774,-0.434 -0.797,-0.379 -0.824,-0.324 -0.844,-0.27 -0.859,-0.211 -0.871,-0.148 -0.879,-0.09 -0.887,-0.031 -25.488,0 -0.883,0.031 -0.883,0.09 -0.871,0.148 -0.859,0.211 -0.844,0.27 -0.824,0.324 -0.797,0.379 -0.774,0.434 -0.738,0.484 -0.707,0.535 -0.664,0.582 -0.629,0.625 -0.578,0.668 -0.535,0.703 -0.488,0.742 -0.434,0.774 -0.379,0.797 -0.324,0.824 -0.27,0.844 -0.207,0.859 -0.152,0.871 -0.09,0.883 -0.031,0.883 0,230.687 0.031,0.883 0.09,0.883 0.152,0.871 0.207,0.859 0.27,0.844 0.324,0.824 0.379,0.797 0.434,0.774 0.488,0.738 0.535,0.707 0.578,0.668 0.629,0.625 0.664,0.582 0.707,0.531 0.738,0.489 0.774,0.433 0.797,0.379 0.824,0.324 0.844,0.27 0.859,0.207 0.871,0.152 0.883,0.09 0.883,0.031 282.097,0 0.883,-0.031 0.879,-0.09 0.875,-0.152 0.86,-0.207 0.843,-0.27 0.821,-0.324 0.8,-0.379 0.774,-0.433 0.738,-0.489 0.707,-0.531 0.664,-0.582 0.629,-0.625 0.578,-0.668 0.535,-0.707 0.485,-0.738 0.433,-0.774 0.383,-0.797 0.324,-0.824 0.266,-0.844 0.211,-0.859 0.148,-0.871 0.094,-0.883 0.028,-0.883 0,-230.687 -0.028,-0.883 -0.094,-0.883 -0.148,-0.871 -0.211,-0.859 -0.266,-0.844 -0.324,-0.824 -0.383,-0.797 -0.433,-0.774 -0.485,-0.742 -0.535,-0.703 -0.578,-0.668 -0.629,-0.625 -0.664,-0.582 -0.707,-0.535 -0.738,-0.484 -0.774,-0.434 -0.8,-0.379 -0.821,-0.324 -0.843,-0.27 -0.86,-0.211 -0.875,-0.148 -0.879,-0.09 -0.883,-0.031 -25.488,0 -0.887,0.031 -0.878,0.09 -0.872,0.148 -0.859,0.211 -0.844,0.27 -0.824,0.324 -0.801,0.379 -0.769,0.434 -0.742,0.484 -0.703,0.535 -0.668,0.582 -0.625,0.625 -0.582,0.668 -0.536,0.703 -0.484,0.742 -0.434,0.774 -0.379,0.797 -0.328,0.824 -0.265,0.844 -0.211,0.859 -0.149,0.871 -0.089,0.883 -0.032,0.883 0,179.281 -0.031,0.883 -0.09,0.879 -0.148,0.875 -0.211,0.859 -0.266,0.844 -0.328,0.82 -0.379,0.801 -0.433,0.77 -0.485,0.742 -0.535,0.703 -0.582,0.668 -0.625,0.625 -0.668,0.582 -0.703,0.535 -0.742,0.484 -0.77,0.434 -0.801,0.383 -0.824,0.324 -0.844,0.266 -0.859,0.211 -0.871,0.148 -0.879,0.094 L 179.277,0 -0.004,0" /></g><g
           transform="translate(2596.4609,728.9141)"
           id="g4307"><path
             inkscape:connector-curvature="0"
             id="path4309"
             style="fill:#ffffff;fill-opacity:1;fill-rule:nonzero;stroke:none"
             d="m 0,0 -230.687,0 -0.883,-0.027 -0.879,-0.094 -0.875,-0.148 -0.86,-0.211 -0.843,-0.266 -0.821,-0.324 -0.8,-0.383 -0.774,-0.434 -0.738,-0.484 -0.703,-0.535 -0.668,-0.582 -0.625,-0.625 -0.582,-0.668 -0.535,-0.703 -0.485,-0.742 -0.433,-0.77 -0.383,-0.801 -0.324,-0.82 -0.266,-0.844 -0.211,-0.859 -0.148,-0.875 -0.094,-0.879 -0.028,-0.883 0,-127.875 0.028,-0.883 0.094,-0.883 0.148,-0.871 0.211,-0.859 0.266,-0.844 0.324,-0.82 0.383,-0.801 0.433,-0.773 0.485,-0.739 0.535,-0.707 0.582,-0.664 0.625,-0.629 0.668,-0.578 0.703,-0.535 0.738,-0.484 0.774,-0.438 0.8,-0.379 0.821,-0.324 0.843,-0.266 0.86,-0.211 0.875,-0.152 0.879,-0.09 0.883,-0.027 230.687,0 0.004,0 0.883,-0.031 0.879,-0.09 0.875,-0.152 0.859,-0.211 0.844,-0.266 0.82,-0.324 0.801,-0.379 0.769,-0.438 0.743,-0.484 0.703,-0.535 0.668,-0.578 0.625,-0.629 0.582,-0.664 0.535,-0.707 0.484,-0.739 0.434,-0.773 0.383,-0.801 0.324,-0.82 0.265,-0.844 0.211,-0.859 0.149,-0.871 0.094,-0.883 0.027,-0.883 0,-25.488 -0.027,-0.883 -0.094,-0.883 -0.149,-0.871 -0.211,-0.859 -0.265,-0.844 -0.324,-0.824 -0.383,-0.797 -0.434,-0.774 -0.484,-0.742 -0.535,-0.703 -0.582,-0.668 -0.625,-0.625 -0.668,-0.582 -0.703,-0.535 -0.743,-0.484 -0.769,-0.434 -0.801,-0.379 -0.82,-0.324 -0.844,-0.27 -0.859,-0.211 -0.875,-0.148 -0.879,-0.09 -0.883,-0.031 -0.004,0 -282.094,0 -0.883,0.031 -0.882,0.09 -0.871,0.148 -0.86,0.211 -0.844,0.27 -0.824,0.324 -0.797,0.379 -0.773,0.434 -0.738,0.484 -0.707,0.535 -0.668,0.582 -0.625,0.625 -0.582,0.668 -0.536,0.703 -0.484,0.742 -0.434,0.774 -0.378,0.797 -0.325,0.824 -0.269,0.844 -0.207,0.859 -0.153,0.871 -0.089,0.883 -0.032,0.883 0,230.687 0.032,0.883 0.089,0.883 0.153,0.871 0.207,0.859 0.269,0.844 0.325,0.824 0.378,0.797 0.434,0.774 0.484,0.738 0.536,0.707 0.582,0.668 0.625,0.625 0.668,0.582 0.707,0.531 0.738,0.489 0.773,0.433 0.797,0.379 0.824,0.324 0.844,0.27 0.86,0.207 0.871,0.152 0.882,0.09 0.883,0.031 282.094,0 0.004,0 0.883,-0.031 0.879,-0.09 0.875,-0.152 0.859,-0.207 0.844,-0.27 0.82,-0.324 0.801,-0.379 0.769,-0.433 0.743,-0.489 0.703,-0.531 0.668,-0.582 0.625,-0.625 0.582,-0.668 0.535,-0.707 0.484,-0.738 0.434,-0.774 0.383,-0.797 0.324,-0.824 0.265,-0.844 0.211,-0.859 0.149,-0.871 0.094,-0.883 0.027,-0.883 0,-25.488 L 12.934,12.078 12.84,11.195 12.691,10.324 12.48,9.465 12.215,8.621 11.891,7.797 11.508,7 11.074,6.227 10.59,5.488 10.055,4.781 9.473,4.113 8.848,3.488 8.18,2.906 7.477,2.371 6.734,1.887 5.965,1.453 5.164,1.074 4.344,0.75 3.5,0.481 2.641,0.274 1.766,0.121 0.887,0.031 0.004,0" /></g><g
           transform="translate(2007.6519,728.9141)"
           id="g4311"><path
             inkscape:connector-curvature="0"
             id="path4313"
             style="fill:#ffffff;fill-opacity:1;fill-rule:nonzero;stroke:none"
             d="m 0,0 230.688,0 0.883,0.031 0.879,0.09 0.875,0.153 0.859,0.207 0.844,0.269 0.824,0.324 0.797,0.379 0.769,0.434 0.743,0.484 0.703,0.535 0.668,0.582 0.625,0.625 0.582,0.668 0.535,0.707 0.484,0.739 0.434,0.773 0.383,0.797 0.324,0.824 0.266,0.844 0.21,0.859 0.153,0.871 0.09,0.883 0.027,0.883 0,25.488 -0.027,0.883 -0.09,0.883 -0.153,0.871 -0.21,0.859 -0.266,0.844 -0.324,0.824 -0.383,0.797 -0.434,0.774 -0.484,0.738 -0.535,0.707 -0.582,0.668 -0.625,0.625 -0.668,0.582 -0.703,0.531 -0.743,0.489 -0.769,0.433 -0.797,0.379 -0.824,0.324 -0.844,0.27 -0.859,0.207 -0.875,0.152 -0.879,0.09 -0.883,0.031 -282.098,0 -0.883,-0.031 -0.882,-0.09 -0.872,-0.152 -0.859,-0.207 -0.844,-0.27 -0.824,-0.324 -0.797,-0.379 -0.773,-0.433 -0.738,-0.489 -0.707,-0.531 -0.665,-0.582 -0.628,-0.625 -0.582,-0.668 -0.532,-0.707 -0.488,-0.738 -0.434,-0.774 -0.379,-0.797 -0.324,-0.824 -0.269,-0.844 -0.207,-0.859 -0.153,-0.871 -0.089,-0.883 -0.032,-0.883 0,-230.687 0.032,-0.883 0.089,-0.883 0.153,-0.871 0.207,-0.859 0.269,-0.844 0.324,-0.824 0.379,-0.797 0.434,-0.774 0.488,-0.742 0.532,-0.703 0.582,-0.668 0.628,-0.625 0.665,-0.582 0.707,-0.535 0.738,-0.484 0.773,-0.434 0.797,-0.379 0.824,-0.324 0.844,-0.27 0.859,-0.211 0.872,-0.148 0.882,-0.09 0.883,-0.031 282.098,0 0.883,0.031 0.879,0.09 0.875,0.148 0.859,0.211 0.844,0.27 0.824,0.324 0.797,0.379 0.769,0.434 0.743,0.484 0.703,0.535 0.668,0.582 0.625,0.625 0.582,0.668 0.535,0.703 0.484,0.742 0.434,0.774 0.383,0.797 0.324,0.824 0.266,0.844 0.21,0.859 0.153,0.871 0.09,0.883 0.027,0.883 0,25.488 -0.027,0.883 -0.09,0.883 -0.153,0.871 -0.21,0.859 -0.266,0.844 -0.324,0.82 -0.383,0.801 -0.434,0.773 -0.484,0.739 -0.535,0.707 -0.582,0.664 -0.625,0.629 -0.668,0.578 -0.703,0.535 -0.743,0.484 -0.769,0.438 -0.797,0.379 -0.824,0.324 -0.844,0.266 -0.859,0.211 -0.875,0.152 -0.879,0.09 -0.883,0.031 -230.688,0 -0.004,0 -0.882,0.027 -0.879,0.09 -0.871,0.152 -0.864,0.211 -0.843,0.266 -0.821,0.324 -0.8,0.379 -0.77,0.438 -0.742,0.484 -0.703,0.535 -0.668,0.578 -0.625,0.629 -0.582,0.664 -0.535,0.707 -0.485,0.739 -0.433,0.773 -0.383,0.801 -0.324,0.82 -0.266,0.844 -0.211,0.859 -0.148,0.871 -0.09,0.883 -0.032,0.883 0,127.875 0.032,0.883 0.09,0.879 0.148,0.875 0.211,0.859 0.266,0.844 0.324,0.82 0.383,0.801 0.433,0.77 0.485,0.742 0.535,0.703 0.582,0.668 0.625,0.625 0.668,0.582 0.703,0.535 0.742,0.484 0.77,0.434 0.8,0.383 0.821,0.324 0.843,0.266 0.864,0.211 0.871,0.148 0.879,0.094 L -0.004,0" /></g><g
           transform="translate(1406.7422,536.6758)"
           id="g4315"><path
             inkscape:connector-curvature="0"
             id="path4317"
             style="fill:#ffffff;fill-opacity:1;fill-rule:nonzero;stroke:none"
             d="m 0,0 -0.027,-0.883 -0.09,-0.883 -0.152,-0.871 -0.207,-0.859 -0.27,-0.844 -0.324,-0.824 -0.383,-0.797 -0.43,-0.773 -0.488,-0.743 -0.531,-0.703 -0.582,-0.668 -0.629,-0.625 -0.664,-0.582 -0.707,-0.535 -0.738,-0.484 -0.774,-0.434 -0.797,-0.379 -0.824,-0.324 -0.844,-0.269 -0.859,-0.211 -0.871,-0.149 -0.883,-0.09 -0.883,-0.031 -25.488,0 -0.887,0.031 -0.879,0.09 -0.871,0.149 -0.859,0.211 -0.844,0.269 -0.824,0.324 -0.797,0.379 -0.773,0.434 -0.739,0.484 -0.707,0.535 -0.668,0.582 -0.625,0.625 -0.582,0.668 -0.535,0.703 -0.484,0.743 -0.434,0.773 -0.379,0.797 -0.324,0.824 -0.27,0.844 -0.207,0.859 -0.152,0.871 -0.09,0.883 -0.031,0.883 0,179.281 -0.031,0.883 -0.09,0.879 -0.149,0.875 -0.211,0.859 -0.265,0.844 -0.324,0.82 -0.383,0.801 -0.434,0.77 -0.484,0.742 -0.535,0.703 -0.582,0.668 -0.625,0.625 -0.668,0.582 -0.703,0.535 -0.743,0.484 -0.769,0.434 -0.801,0.383 -0.82,0.324 -0.848,0.266 -0.859,0.211 -0.871,0.148 -0.879,0.094 -0.887,0.027 -50.973,0 -0.004,0 -0.882,-0.027 -0.879,-0.094 -0.871,-0.148 -0.864,-0.211 -0.843,-0.266 -0.821,-0.324 -0.8,-0.383 -0.77,-0.434 -0.742,-0.484 -0.703,-0.535 -0.668,-0.582 -0.625,-0.625 -0.582,-0.668 -0.535,-0.703 -0.485,-0.742 -0.433,-0.77 -0.383,-0.801 -0.324,-0.82 -0.266,-0.844 -0.211,-0.859 -0.148,-0.875 -0.09,-0.879 -0.032,-0.883 0,-179.281 -0.031,-0.883 -0.09,-0.883 -0.152,-0.871 -0.207,-0.859 -0.27,-0.844 -0.324,-0.824 -0.379,-0.797 -0.433,-0.773 -0.489,-0.743 -0.531,-0.703 -0.582,-0.668 -0.629,-0.625 -0.664,-0.582 -0.707,-0.535 -0.738,-0.484 -0.774,-0.434 -0.796,-0.379 -0.825,-0.324 -0.843,-0.269 -0.86,-0.211 -0.871,-0.149 -0.883,-0.09 -0.883,-0.031 -25.488,0 -0.883,0.031 -0.882,0.09 -0.872,0.149 -0.859,0.211 -0.844,0.269 -0.824,0.324 -0.797,0.379 -0.773,0.434 -0.738,0.484 -0.707,0.535 -0.665,0.582 -0.628,0.625 -0.582,0.668 -0.532,0.703 -0.488,0.743 -0.434,0.773 -0.379,0.797 -0.324,0.824 -0.269,0.844 -0.207,0.859 -0.153,0.871 -0.089,0.883 -0.032,0.883 0,230.687 0.032,0.883 0.089,0.883 0.153,0.871 0.207,0.859 0.269,0.844 0.324,0.824 0.379,0.797 0.434,0.774 0.488,0.738 0.532,0.707 0.582,0.668 0.628,0.625 0.665,0.582 0.707,0.531 0.738,0.489 0.773,0.433 0.797,0.379 0.824,0.324 0.844,0.27 0.859,0.207 0.872,0.152 0.882,0.09 0.883,0.031 282.098,0 0.883,-0.031 0.879,-0.09 0.875,-0.152 0.859,-0.207 0.844,-0.27 0.824,-0.324 0.797,-0.379 0.769,-0.433 0.743,-0.489 0.703,-0.531 0.668,-0.582 0.625,-0.625 0.582,-0.668 0.535,-0.707 0.484,-0.738 0.438,-0.774 0.379,-0.797 0.324,-0.824 0.265,-0.844 0.211,-0.859 0.153,-0.871 0.09,-0.883 0.027,-0.883 0,-230.687 -0.027,-0.883 -0.09,-0.883 -0.153,-0.871 -0.211,-0.859 -0.265,-0.844 -0.324,-0.824 -0.379,-0.797 -0.438,-0.773 -0.484,-0.743 -0.535,-0.703 -0.582,-0.668 -0.625,-0.625 -0.668,-0.582 -0.703,-0.535 -0.743,-0.484 -0.769,-0.434 -0.797,-0.379 -0.824,-0.324 -0.844,-0.269 -0.859,-0.211 -0.875,-0.149 -0.879,-0.09 -0.883,-0.031 -25.488,0 -0.887,0.031 -0.879,0.09 -0.871,0.149 -0.86,0.211 -0.843,0.269 -0.824,0.324 -0.801,0.379 -0.77,0.434 -0.738,0.484 -0.707,0.535 -0.668,0.582 -0.625,0.625 -0.582,0.668 -0.535,0.703 -0.485,0.743 -0.433,0.773 -0.379,0.797 -0.324,0.824 -0.27,0.844 -0.211,0.859 -0.148,0.871 -0.09,0.883 -0.031,0.883 0,179.281 -0.032,0.883 -0.089,0.879 -0.153,0.875 -0.207,0.859 -0.269,0.844 -0.325,0.82 -0.378,0.801 -0.434,0.77 -0.484,0.742 -0.536,0.703 -0.582,0.668 -0.625,0.625 -0.668,0.582 -0.707,0.535 -0.738,0.484 -0.769,0.434 -0.801,0.383 -0.824,0.324 -0.844,0.266 -0.86,0.211 -0.871,0.148 -0.879,0.094 -0.886,0.027 -50.977,0 -0.883,-0.027 -0.879,-0.094 -0.875,-0.148 L 9.465,191.758 8.621,191.492 7.797,191.168 7,190.785 6.231,190.351 5.488,189.867 4.781,189.332 4.117,188.75 3.492,188.125 2.91,187.457 2.375,186.754 1.891,186.012 1.453,185.242 1.074,184.441 0.75,183.621 0.485,182.777 0.274,181.918 0.121,181.043 0.031,180.164 0,179.281 l 0.004,0 L 0.004,0" /></g></g></g></g></svg>